<svg xmlns="http://www.w3.org/2000/svg" width="64" height="64" viewBox="0 0 64 64">
  <rect width="64" height="64" rx="15" fill="#0a0a0a"/>
  <g transform="translate(4.17 47.12) scale(0.0419 -0.0419)" fill="#ffffff">
    <path d="M61 -33Q43 -23 41.5 -11.0Q40 1 55.0 31.0Q70 61 102 124Q126 169 134.5 194.5Q143 220 144.0 231.0Q145 242 145 245Q143 254 147.0 259.5Q151 265 160 269Q165 274 183.0 287.0Q201 300 211 318Q220 339 231.5 361.0Q243 383 262.0 416.5Q281 450 313 504Q333 539 360.5 583.0Q388 627 415 663Q426 677 438.0 685.0Q450 693 459 693Q481 693 503.0 681.5Q525 670 542.0 653.0Q559 636 565 621Q570 613 569.0 587.0Q568 561 565.0 524.0Q562 487 558 445Q555 404 549.0 348.0Q543 292 537.5 231.0Q532 170 529.0 113.5Q526 57 529 15Q530 6 529.0 -2.0Q528 -10 528 -15Q522 -21 502.0 -20.5Q482 -20 463.0 -14.0Q444 -8 442 1Q439 4 438.0 6.0Q437 8 438.0 25.5Q439 43 441 90L446 243L433 242Q424 242 400.5 240.0Q377 238 349.5 234.5Q322 231 299.0 227.5Q276 224 267 221Q258 221 245.5 209.0Q233 197 222 178Q218 164 207.5 148.5Q197 133 197 128Q190 123 185.5 116.0Q181 109 181 109Q181 103 172.5 79.5Q164 56 150.5 27.5Q137 -1 123 -22L96 -60ZM300 311Q300 311 311.0 313.0Q322 315 337.5 317.5Q353 320 365 320Q388 326 403.5 329.0Q419 332 429.0 332.5Q439 333 445 330Q449 325 452.5 324.0Q456 323 456 323Q457 325 460.0 344.0Q463 363 467.0 391.0Q471 419 475.0 449.5Q479 480 482.0 506.5Q485 533 486 548Q487 567 485.0 582.5Q483 598 483 598Q477 598 460.5 576.5Q444 555 422.5 519.5Q401 484 380 443Q370 424 361.5 413.0Q353 402 348 402Q346 400 337.5 386.5Q329 373 319.5 356.5Q310 340 303.5 326.5Q297 313 300 311Z"/>
    <path transform="translate(490.6 0)" d="M194 -61Q154 -51 129.5 -19.5Q105 12 90 56Q89 69 89.5 92.0Q90 115 92.0 135.0Q94 155 96 158Q99 160 99 170Q98 174 100.5 183.5Q103 193 106 203Q111 215 111.0 222.5Q111 230 110 234Q110 234 113.0 240.5Q116 247 120 251Q126 257 125.5 263.0Q125 269 125 269Q124 273 127.0 280.0Q130 287 133 291Q135 293 138.5 299.5Q142 306 142 306Q142 309 146.5 322.0Q151 335 157.0 350.5Q163 366 168.5 379.0Q174 392 177 396V398Q181 408 188 419Q189 424 193.0 435.5Q197 447 202 458Q213 482 229.5 512.5Q246 543 265.0 573.5Q284 604 301.5 628.5Q319 653 332 665Q349 684 366.5 692.5Q384 701 399 686Q406 679 411.0 665.5Q416 652 415.5 640.5Q415 629 407 628Q400 624 388.0 605.5Q376 587 361.5 562.0Q347 537 333.0 510.5Q319 484 307 463Q294 434 283.0 412.5Q272 391 272 391Q271 388 270.0 386.0Q269 384 268 382Q253 351 243.0 325.5Q233 300 223 272Q217 265 216.0 258.0Q215 251 215 251Q213 252 212.0 246.5Q211 241 208 234Q203 230 202.0 221.5Q201 213 201 205Q194 187 188.0 161.5Q182 136 179.5 112.5Q177 89 178 76Q180 59 187.5 47.5Q195 36 209 29Q220 24 229.0 20.5Q238 17 245 17Q253 16 265.5 17.5Q278 19 300 23H299Q312 25 326.5 28.5Q341 32 354 35Q366 37 377.0 39.5Q388 42 394 44Q416 50 429.5 54.0Q443 58 448 54Q453 50 459.0 39.0Q465 28 462 19Q460 14 442.0 -1.5Q424 -17 401.0 -32.5Q378 -48 359 -54Q339 -63 305.5 -66.5Q272 -70 241.0 -68.0Q210 -66 194 -61Z"/>
  </g>
  <circle cx="49.1" cy="46.1" r="3" fill="#c6f04e"/>
</svg>